<svg width="38" height="38" viewBox="0 0 38 38" fill="none" xmlns="http://www.w3.org/2000/svg">
<g clip-path="url(#clip0_5116_1544)">
<path d="M30.0096 7.25643C29.7139 7.0971 28.8203 6.68543 27.9841 7.00942C27.3626 7.25021 26.9292 7.99328 27.1108 8.65167C27.3498 9.51813 28.4317 9.721 29.1552 9.97679C29.842 10.2196 30.2631 10.8588 30.1562 11.588C30.0405 12.3767 29.4138 12.9316 28.6372 13.0269C27.9997 13.1051 27.4095 12.9528 26.8765 12.6042" stroke="#AAA09F" stroke-width="1.5" stroke-miterlimit="10" stroke-linecap="square" stroke-linejoin="round"/>
<path d="M28.5245 13.056V13.9273" stroke="#AAA09F" stroke-width="1.5" stroke-miterlimit="10" stroke-linecap="square" stroke-linejoin="round"/>
<path d="M28.5245 6.09631V6.7924" stroke="#AAA09F" stroke-width="1.5" stroke-miterlimit="10" stroke-linecap="square" stroke-linejoin="round"/>
<path d="M28.5246 18.395C33.1545 18.395 36.9078 14.6417 36.9078 10.0118C36.9078 5.38189 33.1545 1.6286 28.5246 1.6286C23.8946 1.6286 20.1414 5.38189 20.1414 10.0118C20.1414 14.6417 23.8946 18.395 28.5246 18.395Z" stroke="#AAA09F" stroke-width="1.5" stroke-miterlimit="10"/>
<path d="M3.82421 36.9143C5.03681 36.9143 6.01982 35.9313 6.01982 34.7187C6.01982 33.5061 5.03681 32.5231 3.82421 32.5231C2.61161 32.5231 1.6286 33.5061 1.6286 34.7187C1.6286 35.9313 2.61161 36.9143 3.82421 36.9143Z" stroke="#AAA09F" stroke-width="1.5" stroke-miterlimit="10"/>
<path d="M28.5245 18.395V29.8652C28.5245 33.2703 25.7641 36.0307 22.359 36.0307H22.321C18.9158 36.0307 16.1554 33.2703 16.1554 29.8652V15.0822C16.1554 11.677 13.395 8.91663 9.98984 8.91663C6.58467 8.91663 3.82428 11.677 3.82428 15.0822V32.5231" stroke="#AAA09F" stroke-width="1.5" stroke-miterlimit="10"/>
<path d="M28.5245 27.5228H31.9585" stroke="#AAA09F" stroke-width="1.5" stroke-miterlimit="10"/>
<path d="M28.5245 22.8013H31.9585" stroke="#AAA09F" stroke-width="1.5" stroke-miterlimit="10"/>
<path d="M3.82422 27.5228H7.25823" stroke="#AAA09F" stroke-width="1.5" stroke-miterlimit="10"/>
<path d="M3.82422 22.8013H7.25823" stroke="#AAA09F" stroke-width="1.5" stroke-miterlimit="10"/>
<path d="M3.82422 18.0798H7.25823" stroke="#AAA09F" stroke-width="1.5" stroke-miterlimit="10"/>
</g>
<defs>
<clipPath id="clip0_5116_1544">
<rect width="38" height="38" fill="white"/>
</clipPath>
</defs>
</svg>
