<svg width="38" height="38" viewBox="0 0 38 38" fill="none" xmlns="http://www.w3.org/2000/svg">
<path d="M15.0425 17.4094L23.5004 8.95142" stroke="#AAA09F" stroke-width="1.5" stroke-miterlimit="10" stroke-linecap="round" stroke-linejoin="round"/>
<circle cx="15.0424" cy="8.95139" r="1.49516" stroke="#AAA09F" stroke-width="1.5" stroke-miterlimit="10" stroke-linecap="round" stroke-linejoin="round"/>
<circle cx="23.5004" cy="17.4093" r="1.49516" stroke="#AAA09F" stroke-width="1.5" stroke-miterlimit="10" stroke-linecap="round" stroke-linejoin="round"/>
<path d="M2.16754 17.6622C3.01298 13.435 4.67701 5.11492 4.67701 5.11492C4.95078 3.7458 6.15954 2.71429 7.60916 2.71429H33.9239C35.7644 2.71429 37.2166 4.37713 36.8601 6.28241C36.3095 9.02729 33.8658 21.2459 33.8658 21.2459C33.592 22.615 32.3832 23.6465 30.9336 23.6465H4.61885C2.96738 23.6465 1.62854 22.3076 1.62854 20.6562C1.62854 20.4543 1.64858 20.2571 1.6867 20.0665C1.6867 20.0665 1.87965 19.1017 2.16754 17.6622Z" stroke="#AAA09F" stroke-width="1.5" stroke-miterlimit="10" stroke-linecap="round" stroke-linejoin="round"/>
<path d="M2.2251 22.4486L11.196 34.4099C11.7415 35.1372 12.6107 35.6077 13.5898 35.6077C15.2413 35.6077 16.5801 34.2689 16.5801 32.6174V29.6271" stroke="#AAA09F" stroke-width="1.5" stroke-miterlimit="10" stroke-linecap="round" stroke-linejoin="round"/>
</svg>
