<svg width="38" height="38" viewBox="0 0 38 38" fill="none" xmlns="http://www.w3.org/2000/svg">
<g clip-path="url(#clip0_5116_1676)">
<path d="M18.183 28.8177L9.72509 20.3598C8.55729 19.192 8.55729 17.2987 9.72509 16.1308L19.9544 5.90164C23.9475 1.90853 30.0478 0.918581 35.0987 3.44405C37.6242 8.49499 36.6343 14.5953 32.6411 18.5884L22.4119 28.8177C21.2442 29.9855 19.3508 29.9855 18.183 28.8177Z" stroke="#AAA09F" stroke-width="1.5" stroke-miterlimit="10" stroke-linecap="round" stroke-linejoin="round"/>
<path d="M13.9541 33.0467C9.2538 37.7469 1.70326 36.8396 1.70326 36.8396C1.70326 36.8396 0.78695 29.298 5.49617 24.5888" stroke="#AAA09F" stroke-width="1.5" stroke-miterlimit="10" stroke-linecap="round" stroke-linejoin="round"/>
<path d="M36.9143 1.62861L35.0989 3.44403" stroke="#AAA09F" stroke-width="1.5" stroke-miterlimit="10" stroke-linecap="round" stroke-linejoin="round"/>
<path d="M26.6409 16.1309C25.4731 17.2987 23.5797 17.2987 22.412 16.1309C21.2442 14.9631 21.2442 13.0698 22.412 11.902C23.5797 10.7342 25.4731 10.7342 26.6409 11.902C27.8087 13.0698 27.8087 14.9631 26.6409 16.1309Z" stroke="#AAA09F" stroke-width="1.5" stroke-miterlimit="10" stroke-linecap="round" stroke-linejoin="round"/>
<path d="M1.62854 15.7571L5.49621 11.902C7.8318 9.56631 11.6185 9.56631 13.9541 11.902" stroke="#AAA09F" stroke-width="1.5" stroke-miterlimit="10" stroke-linecap="round" stroke-linejoin="round"/>
<path d="M22.7858 36.9143L26.6409 33.0466C28.9765 30.711 28.9765 26.9243 26.6409 24.5888" stroke="#AAA09F" stroke-width="1.5" stroke-miterlimit="10" stroke-linecap="round" stroke-linejoin="round"/>
</g>
<defs>
<clipPath id="clip0_5116_1676">
<rect width="38" height="38" fill="white"/>
</clipPath>
</defs>
</svg>
