<svg width="38" height="38" viewBox="0 0 38 38" fill="none" xmlns="http://www.w3.org/2000/svg">
<g clip-path="url(#clip0_5116_752)">
<path d="M14.0238 18.0952L19.9048 23.9761L12.8476 31.0335C12.1978 31.683 11.1451 31.683 10.4953 31.0335C9.47023 30.0085 7.99175 28.5295 6.9667 27.5046C6.31684 26.8551 6.31684 25.802 6.9667 25.1526L14.0238 18.0952Z" stroke="#AAA09F" stroke-width="1.5" stroke-miterlimit="10" stroke-linecap="round" stroke-linejoin="round"/>
<path d="M22.5635 33.6923C21.2709 34.8296 19.7501 35.7131 18.0793 36.2649L12.8476 31.0334L16.3762 27.5048L22.5635 33.6923Z" stroke="#AAA09F" stroke-width="1.5" stroke-miterlimit="10" stroke-linecap="round" stroke-linejoin="round"/>
<path d="M24.6095 3.98096V1.6286" stroke="#AAA09F" stroke-width="1.5" stroke-miterlimit="10" stroke-linecap="round" stroke-linejoin="round"/>
<path d="M34.019 13.3904H36.3715" stroke="#AAA09F" stroke-width="1.5" stroke-miterlimit="10" stroke-linecap="round" stroke-linejoin="round"/>
<path d="M31.2632 6.73694L32.9264 5.07353" stroke="#AAA09F" stroke-width="1.5" stroke-miterlimit="10" stroke-linecap="round" stroke-linejoin="round"/>
<path d="M21.2832 10.0644C22.1348 9.21276 23.311 8.68574 24.6095 8.68574C27.2059 8.68574 29.3142 10.7939 29.3142 13.3905C29.3142 14.6888 28.7873 15.865 27.9357 16.7166L21.2832 10.0644Z" stroke="#AAA09F" stroke-width="1.5" stroke-miterlimit="10" stroke-linecap="round" stroke-linejoin="round"/>
<path d="M26.9001 22.7043C26.9408 23.1227 26.9619 23.547 26.9619 23.9762C26.9619 31.1169 21.1644 36.9143 14.0238 36.9143C6.88309 36.9143 1.08569 31.1169 1.08569 23.9762C1.08569 16.8354 6.88309 11.0381 14.0238 11.0381C14.4531 11.0381 14.8771 11.059 15.2958 11.0999L14.0238 18.0952L19.9047 23.9762L26.9001 22.7043Z" stroke="#AAA09F" stroke-width="1.5" stroke-miterlimit="10" stroke-linecap="round" stroke-linejoin="round"/>
<path d="M16.3762 5.15719L32.8428 21.6238L19.9047 23.9762L14.0238 18.0953L16.3762 5.15719Z" stroke="#AAA09F" stroke-width="1.5" stroke-miterlimit="10" stroke-linecap="round" stroke-linejoin="round"/>
</g>
<defs>
<clipPath id="clip0_5116_752">
<rect width="38" height="38" fill="white"/>
</clipPath>
</defs>
</svg>
