<svg width="38" height="38" viewBox="0 0 38 38" fill="none" xmlns="http://www.w3.org/2000/svg">
<path d="M21.51 16.8406C21.51 18.1831 20.4216 19.2714 19.0791 19.2714C17.7367 19.2714 16.6483 18.1831 16.6483 16.8406C16.6483 15.4981 17.7367 14.4098 19.0791 14.4098C20.4216 14.4098 21.51 15.4981 21.51 16.8406Z" stroke="#AAA09F" stroke-width="1.5" stroke-miterlimit="10"/>
<path d="M19.0792 19.2715C16.3942 19.2715 14.2175 21.4481 14.2175 24.1331H23.9408C23.9408 21.4481 21.7642 19.2715 19.0792 19.2715Z" stroke="#AAA09F" stroke-width="1.5" stroke-miterlimit="10"/>
<path d="M29.9724 19.2714C29.9724 25.2876 25.0953 30.1647 19.0791 30.1647C13.063 30.1647 8.18591 25.2876 8.18591 19.2714C8.18591 13.2553 13.063 8.37821 19.0791 8.37821C25.0953 8.37821 29.9724 13.2553 29.9724 19.2714Z" stroke="#AAA09F" stroke-width="1.5" stroke-miterlimit="10"/>
<path d="M19.0791 8.46246V1.62863" stroke="#AAA09F" stroke-width="1.5" stroke-miterlimit="10"/>
<path d="M22.5019 4.68719L19.0791 1.62862L15.6564 4.68719" stroke="#AAA09F" stroke-width="1.5" stroke-miterlimit="10"/>
<path d="M19.0791 30.0805V36.9143" stroke="#AAA09F" stroke-width="1.5" stroke-miterlimit="10"/>
<path d="M15.6564 33.8557L19.0791 36.9143L22.5019 33.8557" stroke="#AAA09F" stroke-width="1.5" stroke-miterlimit="10"/>
<path d="M10.1156 13.8669L3.79999 10.45" stroke="#AAA09F" stroke-width="1.5" stroke-miterlimit="10"/>
<path d="M8.16014 9.0151L3.79999 10.45L4.73739 14.9435" stroke="#AAA09F" stroke-width="1.5" stroke-miterlimit="10"/>
<path d="M28.0426 24.676L34.3583 28.0929" stroke="#AAA09F" stroke-width="1.5" stroke-miterlimit="10"/>
<path d="M29.9982 29.5278L34.3583 28.0929L33.4209 23.5994" stroke="#AAA09F" stroke-width="1.5" stroke-miterlimit="10"/>
<path d="M28.0426 13.8669L34.3583 10.45" stroke="#AAA09F" stroke-width="1.5" stroke-miterlimit="10"/>
<path d="M29.9982 9.0151L34.3583 10.45L33.4209 14.9435" stroke="#AAA09F" stroke-width="1.5" stroke-miterlimit="10"/>
<path d="M10.1156 24.676L3.79999 28.0929" stroke="#AAA09F" stroke-width="1.5" stroke-miterlimit="10"/>
<path d="M8.16014 29.5278L3.79999 28.0929L4.73739 23.5994" stroke="#AAA09F" stroke-width="1.5" stroke-miterlimit="10"/>
</svg>
