<svg width="38" height="38" viewBox="0 0 38 38" fill="none" xmlns="http://www.w3.org/2000/svg">
<g clip-path="url(#clip0_5116_753)">
<path d="M18.7573 30.1538C24.7675 30.1538 29.6397 25.2816 29.6397 19.2715C29.6397 13.2613 24.7675 8.3891 18.7573 8.3891C12.7471 8.3891 7.87494 13.2613 7.87494 19.2715C7.87494 25.2816 12.7471 30.1538 18.7573 30.1538Z" stroke="#AAA09F" stroke-width="1.5" stroke-miterlimit="10" stroke-linecap="round" stroke-linejoin="round"/>
<path d="M18.7573 30.1538C21.0682 30.1538 22.9416 25.2816 22.9416 19.2715C22.9416 13.2613 21.0682 8.3891 18.7573 8.3891C16.4465 8.3891 14.5731 13.2613 14.5731 19.2715C14.5731 25.2816 16.4465 30.1538 18.7573 30.1538Z" stroke="#AAA09F" stroke-width="1.5" stroke-miterlimit="10" stroke-linecap="round" stroke-linejoin="round"/>
<path d="M29.6397 19.2715H7.87494" stroke="#AAA09F" stroke-width="1.5" stroke-miterlimit="10" stroke-linecap="round" stroke-linejoin="round"/>
<path d="M20.9706 1.6286C21.85 1.73705 22.7095 1.91043 23.5446 2.14356" stroke="#AAA09F" stroke-width="1.5" stroke-miterlimit="10" stroke-linecap="round" stroke-linejoin="round"/>
<path d="M36.3692 21.7238C36.2533 22.5648 36.0792 23.3859 35.8498 24.1849" stroke="#AAA09F" stroke-width="1.5" stroke-miterlimit="10" stroke-linecap="round" stroke-linejoin="round"/>
<path d="M29.5316 33.4151C28.8824 33.9116 28.1977 34.3631 27.4821 34.7667" stroke="#AAA09F" stroke-width="1.5" stroke-miterlimit="10" stroke-linecap="round" stroke-linejoin="round"/>
<path d="M23.3853 36.4429C22.6003 36.6539 21.7947 36.8125 20.9706 36.9143" stroke="#AAA09F" stroke-width="1.5" stroke-miterlimit="10" stroke-linecap="round" stroke-linejoin="round"/>
<path d="M34.105 28.253C33.6823 28.9745 33.2094 29.6636 32.6915 30.315" stroke="#AAA09F" stroke-width="1.5" stroke-miterlimit="10" stroke-linecap="round" stroke-linejoin="round"/>
<path d="M36.429 17.2972C36.3655 16.7247 36.2755 16.1611 36.1589 15.607" stroke="#AAA09F" stroke-width="1.5" stroke-miterlimit="10" stroke-linecap="round" stroke-linejoin="round"/>
<path d="M29.01 4.74347C28.5637 4.42771 28.1018 4.1326 27.626 3.85815" stroke="#AAA09F" stroke-width="1.5" stroke-miterlimit="10" stroke-linecap="round" stroke-linejoin="round"/>
<path d="M33.7133 11.6458C34.9357 11.6458 35.9266 10.6549 35.9266 9.43253C35.9266 8.21016 34.9357 7.21924 33.7133 7.21924C32.491 7.21924 31.5001 8.21016 31.5001 9.43253C31.5001 10.6549 32.491 11.6458 33.7133 11.6458Z" stroke="#AAA09F" stroke-width="1.5" stroke-miterlimit="10" stroke-linecap="round" stroke-linejoin="round"/>
<path d="M16.544 36.9144C15.6646 36.8059 14.8051 36.6325 13.97 36.3994" stroke="#AAA09F" stroke-width="1.5" stroke-miterlimit="10" stroke-linecap="round" stroke-linejoin="round"/>
<path d="M1.14545 16.8191C1.26128 15.9781 1.43539 15.157 1.66483 14.358" stroke="#AAA09F" stroke-width="1.5" stroke-miterlimit="10" stroke-linecap="round" stroke-linejoin="round"/>
<path d="M7.98309 5.12777C8.63232 4.63125 9.31697 4.17974 10.0326 3.77618" stroke="#AAA09F" stroke-width="1.5" stroke-miterlimit="10" stroke-linecap="round" stroke-linejoin="round"/>
<path d="M14.1294 2.10003C14.9144 1.88903 15.72 1.73041 16.5441 1.6286" stroke="#AAA09F" stroke-width="1.5" stroke-miterlimit="10" stroke-linecap="round" stroke-linejoin="round"/>
<path d="M3.40967 10.29C3.83241 9.56842 4.30531 8.87935 4.82322 8.22791" stroke="#AAA09F" stroke-width="1.5" stroke-miterlimit="10" stroke-linecap="round" stroke-linejoin="round"/>
<path d="M1.08569 21.2457C1.14914 21.8182 1.23915 22.3819 1.35571 22.9359" stroke="#AAA09F" stroke-width="1.5" stroke-miterlimit="10" stroke-linecap="round" stroke-linejoin="round"/>
<path d="M8.50464 33.7995C8.95099 34.1153 9.41283 34.4104 9.88868 34.6848" stroke="#AAA09F" stroke-width="1.5" stroke-miterlimit="10" stroke-linecap="round" stroke-linejoin="round"/>
<path d="M3.8013 31.3237C5.02367 31.3237 6.01459 30.3328 6.01459 29.1104C6.01459 27.8881 5.02367 26.8972 3.8013 26.8972C2.57894 26.8972 1.58801 27.8881 1.58801 29.1104C1.58801 30.3328 2.57894 31.3237 3.8013 31.3237Z" stroke="#AAA09F" stroke-width="1.5" stroke-miterlimit="10" stroke-linecap="round" stroke-linejoin="round"/>
</g>
<defs>
<clipPath id="clip0_5116_753">
<rect width="38" height="38" fill="white"/>
</clipPath>
</defs>
</svg>
