<svg width="160" height="90" viewBox="0 0 160 90" fill="none" xmlns="http://www.w3.org/2000/svg">
<path d="M62 36.2857H71V54.7143H75.1429V36.2857H84.1429V32.7143H62V36.2857Z" fill="white"/>
<path d="M29.5714 51H27.8571V32.5714H23.5714V51H10.2857V32.5714H6V52.5714C6 53.7143 7 54.7143 8.14286 54.7143H27.7143V58H31.7143V53.2857C31.7143 53.2857 31.7143 53.2857 31.7143 53.1429C31.7143 53.1429 31.7143 53.1429 31.7143 53C31.5714 51.8571 30.5714 51 29.5714 51Z" fill="white"/>
<path d="M56.2857 32.7143C56.2857 32.7143 54.8571 32.4286 53.7143 33.7143L39.8571 47.8571V32.5714H35.5714V53C35.5714 54.1429 36.8571 55.1429 37.7143 55.1429C38.5714 55.1429 38.7143 55 39.1429 54.5714C39.2857 54.5714 39.2857 54.4286 39.4286 54.2857L54.2857 39.2857V54.5714H58.5714V34.7143C58.4286 33.5714 57.4286 32.7143 56.2857 32.7143Z" fill="white"/>
<path d="M150 47.5714C149.714 48.1429 149.286 48.7143 148.857 49.1429C148.143 49.8571 147.429 50.4286 146.571 50.7143C145.714 51.1429 144.857 51.2857 143.714 51.2857C142.714 51.2857 141.714 51.1429 140.857 50.7143C140 50.2857 139.286 49.8571 138.571 49.1429C137.857 48.4286 137.286 47.5714 137 46.7143C136.571 45.8571 136.429 44.8571 136.571 43.5714C136.571 42.4286 136.714 41.4286 137.143 40.5714C137.429 39.7143 138 38.8571 138.714 38.1429C139.429 37.4286 140.143 36.8571 141 36.5714C141.857 36.1429 142.714 36 143.857 36C144.857 36 145.857 36.1429 146.714 36.5714C147.571 37 148.286 37.4286 149 38.1429L152.286 35.5714V35.4286C151.143 34.2857 150 33.4286 148.571 32.8571C147.143 32.2857 145.714 32 144 32C142.429 32 140.857 32.2857 139.429 32.8571C138 33.4286 136.857 34.2857 135.714 35.4286C134.571 36.5714 133.857 37.7143 133.286 39.1429C132.714 40.5714 132.429 42 132.429 43.7143C132.429 45.4286 132.714 46.8571 133.286 48.2857C133.857 49.7143 134.714 51 135.714 52.1429C136.857 53.2857 138 54.1429 139.429 54.7143C140.857 55.2857 142.286 55.5714 144 55.5714C145.571 55.5714 147.143 55.2857 148.571 54.7143C150 54.1429 151.143 53.2857 152.286 52.1429C152.857 51.5714 153.286 51 153.714 50.4286L150 47.5714Z" fill="white"/>
<path d="M127.714 32.5714L122.143 44.5714L115.143 32.5714H110.429L120 48.8571C119.143 50.4286 117.571 51.4286 115.714 51.4286C114.571 51.4286 113.571 51.1429 112.571 50.8571V54.7143C113.429 55.1429 114.714 55.2857 116.429 55.2857C119.571 55.2857 122.286 53.2857 124.143 49.2857L132.286 32.7143H127.714V32.5714Z" fill="white"/>
<path d="M99.5714 32.5714H90C88.8571 32.5714 87.8571 33.5714 87.8571 34.7143V54.7143H92.1429V47.7143H99.4286C102.286 47.7143 104.429 47 106 45.5714C107.571 44.1429 108.429 42.2857 108.429 40C108.429 37.7143 107.571 36 106 34.5714C104.571 33.2857 102.286 32.5714 99.5714 32.5714ZM99.1429 44H92.1429V36.2857H99.1429C102.429 36.2857 104.286 37.7143 104.286 40.1429C104.286 42.5714 102.429 44 99.1429 44Z" fill="white"/>
</svg>
