<svg width="160" height="90" viewBox="0 0 160 90" fill="none" xmlns="http://www.w3.org/2000/svg">
<path d="M20.1913 34.7304L21.3836 34.8845C21.1927 35.9629 20.4593 39.4627 20.1545 40.5378H3V39.4594C6.30899 39.2283 6.57692 38.9202 6.57692 36.0366V22.0003C6.57692 18.8856 6.30899 18.7684 3.46219 18.5373V17.4622H19.2703C19.3072 18.2693 19.4612 20.731 19.6153 22.6936L18.4632 22.8074C18.155 21.307 17.8101 20.5769 17.3479 19.7697C16.9259 18.9994 16.0015 18.7315 13.4628 18.7315H10.4251C9.34669 18.7315 9.27301 18.8454 9.27301 19.887V27.8881H12.8097C16.0015 27.8881 16.1556 27.58 16.5776 25.1954H17.733V32.0042H16.5776C16.0785 29.4655 15.9245 29.3115 12.8097 29.3115H9.27301V35.8892C9.27301 37.5437 9.54095 38.3508 10.1974 38.813C10.8907 39.2752 12.1198 39.2752 13.9652 39.2752C16.658 39.2752 17.6962 38.9671 18.4665 38.0829C19.0426 37.4298 19.7358 36.1973 20.198 34.7371L20.1913 34.7304ZM40.8859 18.5373C43.3476 18.6511 44.2317 19.1133 44.4226 20.6908C44.5365 21.652 44.6537 23.2294 44.6537 26.6154V35.5375H44.5399L29.693 17.4622H24.5788V18.5373C26.2701 18.6913 27.1174 18.9593 27.8476 19.8434C28.4638 20.6908 28.5408 20.6908 28.5408 23.3064V31.0765C28.5408 34.3084 28.427 36.0366 28.3097 37.1518C28.1188 38.8833 27.1945 39.3455 25.118 39.4226V40.5378H33.7321V39.4226C31.3475 39.3087 30.4633 38.8833 30.2322 37.0748C30.1953 36.0366 30.0781 34.3051 30.0781 31.0765V22.2682H30.1551L45.1159 40.8057H46.2312V26.6154C46.2312 23.2294 46.3082 21.6553 46.3853 20.5769C46.5762 19.1167 47.5005 18.6545 49.5402 18.5373V17.4622H40.8859V18.5373ZM65.7703 30.8454C69.2702 31.1535 69.5381 31.3444 69.5381 33.9232V36.616C69.5381 38.1934 69.1161 38.5786 68.309 38.9637C67.5018 39.3857 66.3866 39.657 65.077 39.657C58.1141 39.657 54.9994 33.8094 54.9994 28.7354C54.9994 22.1577 59.0385 18.3497 64.5747 18.3497C67.8837 18.3497 70.5362 19.3511 71.4606 23.8122L72.539 23.6213C72.2309 21.3505 72.0768 19.3143 71.963 18.0449C70.8075 17.777 68.0411 17.0067 65.0402 17.0067C58.3485 17.0067 51.6937 20.8147 51.6937 29.1206C51.6937 36.1203 56.8481 41.0067 64.5412 41.0067C67.3478 41.0067 70.2716 40.2364 72.5424 39.7005C72.3113 38.6991 72.2744 37.547 72.2744 36.3547V33.3539C72.2744 31.3143 72.4285 31.2004 74.6222 30.8554V29.8172H65.777V30.8554L65.7703 30.8454ZM92.5403 38.1901C91.7332 39.0742 90.5408 39.2651 88.5782 39.2651C87.041 39.2651 85.7716 39.1881 85.0783 38.803C84.4253 38.4178 84.1942 37.7279 84.1942 35.8021V21.9232C84.1942 18.9224 84.5793 18.7315 87.5031 18.5373V17.4622H78.2728V18.5373C81.2737 18.7684 81.5048 18.9593 81.5048 21.9232V36.0399C81.5048 39.0407 81.2368 39.2718 78.236 39.4259V40.5412H94.235C94.58 39.4627 95.3503 36.0399 95.5412 34.9648L94.3891 34.7739C93.8498 36.4284 93.1967 37.5035 92.5436 38.1968L92.5403 38.1901ZM100.347 18.5373C103.348 18.7684 103.616 18.9224 103.616 21.9232V36.0399C103.616 39.0776 103.348 39.2718 100.347 39.4259V40.5412H109.618V39.4259C106.657 39.2718 106.309 39.1178 106.309 36.0399V21.9232C106.309 18.9224 106.654 18.7684 109.618 18.5373V17.4622H100.347V18.5373ZM122.887 27.3824C120.194 25.9992 118.426 24.8437 118.426 22.151C118.426 20.3826 119.541 18.266 122.388 18.266C125.543 18.266 126.31 20.7276 126.889 22.9213L128.045 22.7672C127.777 20.4228 127.583 19.0765 127.469 17.8071C125.814 17.2679 124.431 17 123.045 17C118.543 17 115.854 19.8836 115.854 23.2696C115.854 27.3455 119.585 28.923 121.661 30.0382C124.314 31.4616 126.317 32.6539 126.317 35.3466C126.317 38.0394 124.739 39.6536 121.97 39.6536C118.316 39.6536 116.892 36.1538 116.316 34.0003L115.201 34.2682C115.432 36.0767 115.854 38.9235 116.162 39.7307C116.47 39.8847 117.009 40.1929 117.817 40.4239C118.664 40.6919 119.816 41 121.316 41C125.932 41 129.087 38.1164 129.087 34.3084C129.087 30.1923 125.473 28.655 122.894 27.3857L122.887 27.3824ZM148.887 18.5373C151.734 18.7684 152.002 18.9593 152.002 21.8462V27.5398H139.539V21.8462C139.539 18.9626 139.847 18.7684 142.617 18.5373V17.4622H133.501V18.5373C136.538 18.7684 136.81 18.9224 136.81 21.8462V36.1538C136.81 39.1144 136.542 39.2316 133.578 39.4226V40.5378H142.808V39.4226C139.847 39.2316 139.539 39.0374 139.539 36.1538V29.1541H152.002V36.1538C152.002 39.0776 151.694 39.2316 148.579 39.4226V40.5378H158V39.4226C155.039 39.2316 154.731 39.1144 154.731 36.1538V21.8462C154.731 18.9224 155.039 18.7684 158 18.5373V17.4622H148.884V18.5373H148.887ZM41.6772 50.5373C44.524 50.7684 44.7919 50.9593 44.7919 53.8462V59.5398H32.3296V53.8462C32.3296 50.9626 32.6378 50.7684 35.4075 50.5373V49.4622H26.2911V50.5373C29.3288 50.7684 29.6001 50.9224 29.6001 53.8462V68.1538C29.6001 71.1144 29.3321 71.2316 26.3681 71.4225V72.5378H35.5984V71.4225C32.6378 71.2316 32.3296 71.0374 32.3296 68.1538V61.1541H44.7919V68.1538C44.7919 71.0776 44.4838 71.2316 41.3691 71.4225V72.5378H50.7903V71.4225C47.8296 71.2316 47.5215 71.1144 47.5215 68.1538V53.8462C47.5215 50.9224 47.8296 50.7684 50.7903 50.5373V49.4622H41.6739V50.5373H41.6772ZM75.6781 60.6919C75.6781 68.4217 70.3328 73 63.832 73C57.3313 73 52.4482 68.1538 52.4482 61.2679C52.4482 54.7672 56.9495 49 64.2942 49C70.1787 49 75.6781 53.5013 75.6781 60.6919ZM72.292 61.6162C72.292 54.0773 68.1391 50.3866 63.4837 50.3866C59.5618 50.3866 55.7538 53.4644 55.7538 60.233C55.7538 67.0017 59.5987 71.6168 64.6392 71.6168C68.6381 71.6168 72.292 68.5021 72.292 61.6162ZM103.255 67.0787L102.91 54.6936C102.796 50.8085 103.064 50.8487 106.256 50.5406V49.4622H100.254L91.8312 67.4237L83.6793 49.4622H77.9856V50.5373C81.2544 50.8454 81.3717 50.9224 81.0636 55.4605L80.5645 62.8052C80.3334 66.573 80.1023 68.0734 79.9114 69.2657C79.6435 70.8432 78.9502 71.1881 76.8737 71.3824V72.5378H85.2969V71.3824C82.9525 71.1915 82.0281 70.9202 81.9511 69.2657C81.9109 67.9193 81.9511 66.496 82.1051 63.4181L82.6042 53.1864H82.6812L90.6824 72.2632H91.4125L100.221 52.6472H100.298L100.452 67.0687C100.452 70.9905 100.375 71.1848 97.4142 71.4159V72.5311H106.645V71.4159C103.49 71.1848 103.376 70.9939 103.259 67.0687L103.255 67.0787ZM127.718 66.7337C127.255 68.194 126.562 69.4265 125.986 70.0795C125.216 70.9637 124.178 71.2718 121.485 71.2718C119.639 71.2718 118.407 71.2718 117.717 70.8097C117.064 70.3475 116.793 69.5403 116.793 67.8859V61.3081H120.333C123.447 61.3081 123.601 61.4622 124.101 64.0008H125.256V57.192H124.101C123.679 59.5766 123.524 59.8847 120.333 59.8847H116.793V51.8836C116.793 50.8454 116.87 50.7282 117.948 50.7282H120.986C123.524 50.7282 124.449 50.9961 124.871 51.7664C125.333 52.5735 125.678 53.3037 125.986 54.8041L127.142 54.6902C126.988 52.7276 126.833 50.266 126.797 49.4588H110.988V50.5339C113.835 50.765 114.103 50.8789 114.103 53.9969V68.0366C114.103 70.9202 113.835 71.2283 110.526 71.4594V72.5378H127.681C127.989 71.4594 128.719 67.9595 128.91 66.8845L127.718 66.7304V66.7337Z" fill="white"/>
</svg>
