<svg width="160" height="90" viewBox="0 0 160 90" fill="none" xmlns="http://www.w3.org/2000/svg">
<path d="M65.2404 57.2851C63.9072 57.2669 62.6091 56.8536 61.5093 56.097C60.4096 55.3405 59.5573 54.2745 59.0596 53.0332C58.5619 51.7918 58.441 50.4305 58.7121 49.1203C58.9833 47.8102 59.6344 46.6098 60.5835 45.67C61.5326 44.7303 62.7374 44.0931 64.0464 43.8386C65.3554 43.5842 66.7101 43.7238 67.9402 44.24C69.1703 44.7562 70.2209 45.6258 70.9599 46.7396C71.6989 47.8534 72.0932 49.1616 72.0933 50.4996C72.0882 51.397 71.9067 52.2846 71.5594 53.1115C71.2121 53.9384 70.7056 54.6885 70.0691 55.3187C69.4326 55.949 68.6784 56.4471 67.8498 56.7845C67.0213 57.1219 66.1345 57.292 65.2404 57.2851ZM77.0332 44.135C75.8781 42.239 74.2228 40.7007 72.2505 39.6903C70.0853 38.5674 67.6774 37.9983 65.2404 38.0334C62.8271 37.9924 60.4399 38.5383 58.2826 39.6245C56.2761 40.6316 54.5954 42.1893 53.4357 44.1166C52.2761 46.0439 51.6849 48.2618 51.731 50.5128C51.6874 52.7616 52.2797 54.9767 53.4393 56.9014C54.5988 58.8262 56.2781 60.3818 58.2826 61.3879C60.4399 62.4741 62.8271 63.0201 65.2404 62.979C67.6454 63.0216 70.0245 62.4754 72.1719 61.3879C74.1754 60.3771 75.8535 58.8186 77.0126 56.8921C78.1718 54.9657 78.7649 52.7497 78.7235 50.4996C78.7708 48.2355 78.1852 46.0034 77.0332 44.0561" fill="white"/>
<path d="M125.515 57.2851C124.182 57.2669 122.884 56.8536 121.784 56.097C120.684 55.3405 119.832 54.2745 119.334 53.0332C118.836 51.7918 118.715 50.4305 118.987 49.1203C119.258 47.8102 119.909 46.6098 120.858 45.67C121.807 44.7303 123.012 44.0931 124.321 43.8386C125.63 43.5842 126.985 43.7238 128.215 44.24C129.445 44.7562 130.495 45.6258 131.234 46.7396C131.973 47.8534 132.368 49.1616 132.368 50.4996C132.363 51.397 132.181 52.2846 131.834 53.1115C131.487 53.9384 130.98 54.6885 130.344 55.3187C129.707 55.949 128.953 56.4471 128.124 56.7845C127.296 57.1219 126.409 57.292 125.515 57.2851ZM137.308 44.135C136.147 42.2386 134.488 40.7005 132.512 39.6903C130.352 38.5659 127.948 37.9966 125.515 38.0334C123.102 37.9924 120.714 38.5383 118.557 39.6245C116.551 40.6316 114.87 42.1893 113.71 44.1166C112.551 46.0439 111.959 48.2618 112.005 50.5128C111.962 52.7616 112.554 54.9767 113.714 56.9014C114.873 58.8262 116.553 60.3818 118.557 61.3879C120.723 62.4354 123.097 62.9794 125.502 62.9794C127.906 62.9794 130.28 62.4354 132.446 61.3879C134.45 60.3771 136.128 58.8186 137.287 56.8921C138.446 54.9657 139.039 52.7497 138.998 50.4996C139.033 48.2317 138.434 45.9993 137.268 44.0561" fill="white"/>
<path d="M35.3521 57.2063C33.5472 57.1959 31.8195 56.4699 30.5456 55.1865C29.2718 53.9032 28.555 52.1665 28.5516 50.3551C28.549 48.9943 28.9487 47.6633 29.7001 46.5306C30.4516 45.3979 31.521 44.5143 32.7729 43.9918C34.0249 43.4692 35.4032 43.3311 36.7334 43.595C38.0636 43.8589 39.2859 44.5129 40.2457 45.4742C41.2054 46.4355 41.8594 47.6609 42.1248 48.9954C42.3903 50.3298 42.2554 51.7133 41.7371 52.9708C41.2188 54.2283 40.3404 55.3031 39.2132 56.0594C38.086 56.8157 36.7605 57.2194 35.4045 57.2194M47.1974 43.7275C46.1734 41.8693 44.6533 40.3346 42.8078 39.2959C40.9017 38.2459 38.7581 37.7069 36.5838 37.731C33.8981 37.7391 31.2956 38.6669 29.2067 40.3611V28H22V62.6241H28.7874V59.7837C29.7413 60.8739 30.9324 61.7291 32.2684 62.2832C33.6045 62.8373 35.0497 63.0755 36.4921 62.9791C38.667 63.0093 40.8122 62.4699 42.7161 61.4143C44.5722 60.3616 46.0974 58.8082 47.1188 56.9301C48.2011 54.9114 48.7471 52.647 48.7043 50.3551C48.7483 48.063 48.2022 45.7983 47.1188 43.7801" fill="white"/>
<path d="M88.42 50.3551C88.3966 48.9724 88.7836 47.614 89.5318 46.4527C90.2799 45.2914 91.3554 44.3797 92.6213 43.8336C93.8873 43.2876 95.2865 43.1318 96.641 43.3861C97.9954 43.6405 99.2439 44.2934 100.227 45.2619C101.211 46.2304 101.885 47.4707 102.164 48.8249C102.444 50.1791 102.315 51.586 101.795 52.8667C101.275 54.1473 100.387 55.2438 99.2444 56.0166C98.1017 56.7893 96.7557 57.2035 95.3778 57.2063C94.4727 57.2149 93.5747 57.0446 92.7352 56.705C91.8957 56.3654 91.131 55.8631 90.4849 55.2269C89.8388 54.5907 89.3239 53.833 88.9696 52.9971C88.6153 52.1612 88.4286 51.2634 88.42 50.3551ZM81.8684 50.3551C81.8246 52.6504 82.3802 54.9172 83.4801 56.9301C84.5252 58.7946 86.0681 60.3294 87.9352 61.3617C89.8662 62.4222 92.0368 62.9657 94.2378 62.9397C95.7044 63.0447 97.1754 62.8113 98.5382 62.2574C99.9009 61.7035 101.119 60.8438 102.1 59.7442V62.5715H108.979V28H101.772V40.2953C99.6424 38.6017 97.0074 37.6755 94.2902 37.6653C92.0892 37.6393 89.9186 38.1828 87.9876 39.2433C86.0716 40.2891 84.4939 41.8633 83.4408 43.7801C82.3409 45.793 81.7853 48.0598 81.8291 50.3551" fill="white"/>
</svg>
