<svg width="160" height="90" viewBox="0 0 160 90" fill="none" xmlns="http://www.w3.org/2000/svg">
<path d="M27.1386 29.8342C21.1064 29.8342 18.0917 27.4525 18.0917 22.6891V22.2802H22.7111V22.5947C22.7111 23.7642 23.0149 24.5533 23.6224 24.9622C24.2299 25.371 25.4765 25.574 27.3621 25.574C28.6602 25.574 29.54 25.4339 30.0014 25.1509C30.4627 24.8678 30.692 24.3617 30.692 23.6298C30.692 22.8978 30.4971 22.346 30.1103 22.0315C29.7234 21.717 28.8265 21.4454 27.4252 21.2166L23.717 20.559C19.9057 19.9128 18 17.9171 18 14.5719C18 12.7963 18.6964 11.2924 20.0891 10.0572C21.4818 8.82488 23.5823 8.2073 26.3878 8.2073C29.1933 8.2073 31.3941 8.86491 32.7954 10.183C34.1996 11.4982 34.9016 13.2652 34.9016 15.4811V15.7327H30.2507V15.3867C30.2507 14.2802 29.967 13.5168 29.4024 13.0994C28.8379 12.6819 27.7776 12.4732 26.2302 12.4732C24.912 12.4732 23.9892 12.6247 23.4648 12.9278C22.9404 13.2309 22.6796 13.717 22.6796 14.386C22.6796 15.0551 22.8687 15.5211 23.2441 15.7813C23.6224 16.0443 24.4391 16.2874 25.6943 16.519L29.434 17.2395C33.3914 17.9914 35.3716 20.0701 35.3716 23.4782C35.3716 25.3167 34.7011 26.8378 33.3599 28.0386C32.0188 29.2395 29.9469 29.8399 27.1386 29.8399V29.8342ZM41.9655 29.5197H37.2543V8.52181H41.9655V29.5226V29.5197ZM53.7462 29.8342C47.714 29.8342 44.6993 27.4525 44.6993 22.6891V22.2802H49.3188V22.5947C49.3188 23.7642 49.6225 24.5533 50.23 24.9622C50.8376 25.371 52.0841 25.574 53.9697 25.574C55.2679 25.574 56.1476 25.4339 56.609 25.1509C57.0704 24.8678 57.2996 24.3617 57.2996 23.6298C57.2996 22.8978 57.1048 22.346 56.7179 22.0315C56.331 21.717 55.4341 21.4454 54.0328 21.2166L50.3246 20.559C46.5133 19.9128 44.6076 17.9171 44.6076 14.5719C44.6076 12.7963 45.304 11.2924 46.6967 10.0572C48.0894 8.82488 50.1899 8.2073 52.9954 8.2073C55.8009 8.2073 58.0017 8.86491 59.403 10.183C60.8072 11.4982 61.5093 13.2652 61.5093 15.4811V15.7327H56.8583V15.3867C56.8583 14.2802 56.5746 13.5168 56.0101 13.0994C55.4455 12.6819 54.3853 12.4732 52.8378 12.4732C51.5196 12.4732 50.5969 12.6247 50.0724 12.9278C49.548 13.2309 49.2873 13.717 49.2873 14.386C49.2873 15.0551 49.4764 15.5211 49.8518 15.7813C50.23 16.0443 51.0468 16.2874 52.3019 16.519L56.0416 17.2395C59.9991 17.9914 61.9792 20.0701 61.9792 23.4782C61.9792 25.3167 61.3087 26.8378 59.9676 28.0386C58.6264 29.2395 56.5546 29.8399 53.7462 29.8399V29.8342ZM73.2556 29.5197H68.5445V12.7534H61.7586V8.52181H80.0415V12.7534H73.2556V29.5226V29.5197ZM97.1638 29.5197H81.1104V8.52181H97.1638V12.7534H85.8215V16.8592H96.691V21.0594H85.8215V25.291H97.1638V29.5226V29.5197ZM104.357 29.5197H99.6455V8.52181H109.32C111.833 8.52181 113.765 9.07649 115.117 10.183C116.467 11.2924 117.143 12.8678 117.143 14.915C117.143 18.4461 115.372 20.3703 111.833 20.6819V20.9965C112.693 21.2681 113.383 21.6598 113.905 22.1716C114.429 22.6834 114.911 23.3782 115.349 24.2559L118.02 29.5226H112.524L110.042 24.6648C109.518 23.6612 109.016 22.9779 108.535 22.6119C108.053 22.2459 107.288 22.0629 106.242 22.0629H104.357V29.5226V29.5197ZM104.357 12.7506V18.1744H109.541C110.65 18.1744 111.415 17.9771 111.833 17.5797C112.252 17.1823 112.461 16.4732 112.461 15.4496C112.461 14.426 112.246 13.7455 111.816 13.3481C111.386 12.9507 110.627 12.7534 109.538 12.7534H104.354L104.357 12.7506ZM134.767 29.8342C128.735 29.8342 125.72 27.4525 125.72 22.6891V22.2802H130.34V22.5947C130.34 23.7642 130.643 24.5533 131.251 24.9622C131.858 25.371 133.105 25.574 134.99 25.574C136.289 25.574 137.168 25.4339 137.63 25.1509C138.091 24.8678 138.32 24.3617 138.32 23.6298C138.32 22.8978 138.126 22.346 137.739 22.0315C137.352 21.717 136.455 21.4454 135.054 21.2166L131.345 20.559C127.534 19.9128 125.628 17.9171 125.628 14.5719C125.628 12.7963 126.325 11.2924 127.717 10.0572C129.11 8.82488 131.211 8.2073 134.016 8.2073C136.822 8.2073 139.022 8.86491 140.424 10.183C141.828 11.4982 142.527 13.2652 142.527 15.4811V15.7327H137.879V15.3867C137.879 14.2802 137.595 13.5168 137.031 13.0994C136.466 12.6819 135.406 12.4732 133.859 12.4732C132.54 12.4732 131.618 12.6247 131.093 12.9278C130.569 13.2309 130.308 13.717 130.308 14.386C130.308 15.0551 130.497 15.5211 130.873 15.7813C131.251 16.0443 132.068 16.2874 133.323 16.519L137.062 17.2395C141.02 17.9914 143 20.0701 143 23.4782C143 25.3167 142.329 26.8378 140.988 28.0386C139.647 29.2395 137.575 29.8399 134.767 29.8399V29.8342ZM32.9276 63.3985H28.0273L35.7875 42.3977H42.6365L50.3967 63.3985H45.2757L43.5792 58.7294H34.6585L32.9305 63.3985H32.9276ZM37.3894 51.2669L36.1944 54.5264H42.0375L40.8425 51.2669L39.3037 46.535H38.9885L37.3866 51.2669H37.3894ZM56.0821 63.3985H51.371V42.4006H61.0454C63.5586 42.4006 65.4901 42.9553 66.8427 44.0618C68.1924 45.1711 68.8687 46.7466 68.8687 48.7937C68.8687 52.3248 67.0977 54.2491 63.5586 54.5607V54.8752C64.4183 55.1469 65.1089 55.5386 65.6334 56.0504C66.1578 56.5622 66.6392 57.257 67.0776 58.1347L69.7484 63.4013H64.2521L61.7704 58.5436C61.246 57.54 60.7446 56.8567 60.2631 56.4907C59.7817 56.1247 59.0166 55.9417 57.9706 55.9417H56.085V63.4013L56.0821 63.3985ZM56.0821 46.6293V52.0532H61.2661C62.3751 52.0532 63.1402 51.8559 63.5586 51.4585C63.977 51.0611 64.1862 50.352 64.1862 49.3284C64.1862 48.3048 63.9713 47.6243 63.5414 47.2269C63.1116 46.8295 62.3522 46.6322 61.2632 46.6322H56.0792L56.0821 46.6293ZM88.1574 60.7823C86.3549 62.7352 83.8962 63.713 80.7755 63.713C77.6548 63.713 75.1875 62.7352 73.3764 60.7823C71.5653 58.8295 70.6597 56.2019 70.6597 52.8995C70.6597 49.5972 71.5653 46.9696 73.3764 45.0168C75.1875 43.0639 77.6548 42.0861 80.7755 42.0861C83.8962 42.0861 86.3578 43.0639 88.1574 45.0168C89.957 46.9696 90.8597 49.5972 90.8597 52.8995C90.8597 56.2019 89.9599 58.8295 88.1574 60.7823ZM76.8324 57.8374C77.5975 58.7266 78.91 59.1697 80.7755 59.1697C82.641 59.1697 83.9478 58.7266 84.7014 57.8374C85.4551 56.9482 85.8334 55.3041 85.8334 52.8995C85.8334 50.495 85.4551 48.8509 84.7014 47.9617C83.9478 47.0725 82.6382 46.6293 80.7755 46.6293C78.9128 46.6293 77.5975 47.0725 76.8324 47.9617C76.0672 48.8509 75.6861 50.495 75.6861 52.8995C75.6861 55.3041 76.0672 56.9482 76.8324 57.8374ZM97.8348 63.4013H93.1236V42.4006H99.7519L103.429 52.2105L105.125 57.6029H105.44L107.105 52.2105L110.624 42.4006H117.252V63.4013H112.541V53.4657L112.793 49.4228H112.447L111.22 53.5286L108.048 61.9603H102.331L99.1587 53.5286L97.9007 49.4228H97.5854L97.8376 53.4657V63.4013H97.8348ZM123.124 63.4013H118.224L125.984 42.4006H132.833L140.593 63.4013H135.472L133.776 58.7323H124.855L123.127 63.4013H123.124ZM127.586 51.2698L126.391 54.5293H132.234L131.039 51.2698L129.5 46.5378H129.185L127.583 51.2698H127.586ZM27.2433 83.8542H19.9215V74.2759H27.2433V76.2058H22.0708V78.0786H27.0283V79.9943H22.0708V81.9242H27.2433V83.8542ZM32.4015 83.9971C29.6504 83.9971 28.2749 82.9106 28.2749 80.7377V80.5518H30.3812V80.6948C30.3812 81.2294 30.5187 81.5868 30.7967 81.7727C31.0747 81.9585 31.6421 82.0529 32.5018 82.0529C33.0949 82.0529 33.4961 81.9871 33.7053 81.8585C33.9145 81.7298 34.0206 81.4982 34.0206 81.1665C34.0206 80.8349 33.9317 80.5804 33.7569 80.4374C33.5792 80.2945 33.1723 80.1715 32.5333 80.0657L30.8425 79.7655C29.1031 79.471 28.2348 78.559 28.2348 77.035C28.2348 76.2259 28.5529 75.5396 29.1862 74.9764C29.8224 74.4131 30.7795 74.1329 32.0576 74.1329C33.3357 74.1329 34.3415 74.4331 34.9805 75.0336C35.6196 75.634 35.9405 76.4403 35.9405 77.4496V77.564H33.82V77.4067C33.82 76.9006 33.691 76.5547 33.4331 76.3631C33.1752 76.1715 32.6938 76.0772 31.9859 76.0772C31.3841 76.0772 30.9629 76.1458 30.725 76.2859C30.4872 76.4231 30.3668 76.6462 30.3668 76.9521C30.3668 77.258 30.4528 77.4696 30.6247 77.5897C30.7967 77.7098 31.1692 77.8213 31.7424 77.9242L33.4474 78.253C35.2528 78.5961 36.1555 79.5454 36.1555 81.0979C36.1555 81.9357 35.8488 82.6304 35.2385 83.1766C34.6281 83.7255 33.6824 84 32.4015 84V83.9971ZM41.2993 83.8542H39.1501V76.2058H36.0552V74.2759H44.3942V76.2058H41.2993V83.8542ZM46.8014 83.8542H44.1077V81.3238H46.8014V83.8542ZM118.275 83.8542H110.767V82.5675C110.767 82.1186 110.833 81.7212 110.967 81.3753C111.102 81.0293 111.306 80.7234 111.575 80.466C111.847 80.2087 112.114 79.9971 112.377 79.8284C112.641 79.6626 112.968 79.4825 113.357 79.2909L115.02 78.5046C115.449 78.3045 115.747 78.1072 115.914 77.9128C116.08 77.7184 116.166 77.4667 116.166 77.1637C116.166 76.792 116.051 76.5203 115.822 76.3488C115.593 76.1772 115.177 76.0915 114.575 76.0915C113.908 76.0915 113.461 76.1944 113.237 76.3974C113.014 76.6033 112.899 76.9721 112.899 77.5068V77.7498H110.75V77.5211C110.75 76.5204 111.079 75.7055 111.738 75.0765C112.397 74.4474 113.4 74.1329 114.747 74.1329C115.959 74.1329 116.856 74.4045 117.435 74.9478C118.014 75.491 118.304 76.2259 118.304 77.1494C118.304 77.9013 118.083 78.5161 117.644 78.9936C117.206 79.471 116.619 79.8742 115.882 80.2087L114.435 80.8377C113.968 81.0464 113.621 81.2323 113.398 81.3953C113.174 81.5582 113.062 81.7441 113.062 81.9528L114.61 81.9242H118.278V83.8542H118.275ZM124.035 83.9971C122.668 83.9971 121.608 83.554 120.854 82.6676C120.1 81.7813 119.722 80.5804 119.722 79.065C119.722 77.5497 120.1 76.3602 120.854 75.4682C121.608 74.5761 122.668 74.1329 124.035 74.1329C125.402 74.1329 126.448 74.579 127.201 75.4682C127.955 76.3602 128.333 77.5582 128.333 79.065C128.333 80.5718 127.955 81.7813 127.201 82.6676C126.448 83.554 125.39 83.9971 124.035 83.9971ZM124.035 81.9242C124.78 81.9242 125.302 81.7269 125.597 81.3295C125.892 80.9349 126.041 80.1801 126.041 79.065C126.041 77.9499 125.892 77.1951 125.597 76.8006C125.302 76.406 124.78 76.2058 124.035 76.2058C123.29 76.2058 122.754 76.4031 122.459 76.8006C122.164 77.1951 122.015 77.9499 122.015 79.065C122.015 80.1801 122.164 80.9349 122.459 81.3295C122.754 81.7241 123.281 81.9242 124.035 81.9242ZM133.621 83.8542H131.486V76.9921H129.322V75.4624H129.752C130.21 75.4624 130.589 75.371 130.884 75.1908C131.179 75.0107 131.443 74.7048 131.672 74.2759H133.621V83.8542ZM138.764 83.9971C137.446 83.9971 136.437 83.7627 135.735 83.2966C135.033 82.8306 134.681 82.1329 134.681 81.2094C134.681 80.5604 134.858 80.0429 135.211 79.6597C135.563 79.2738 136.008 79.005 136.543 78.8506V78.7648C136.085 78.6876 135.712 78.4675 135.426 78.0986C135.139 77.7327 134.996 77.2723 134.996 76.7176C134.996 75.9256 135.314 75.2966 135.95 74.8306C136.586 74.3645 137.529 74.1301 138.782 74.1301C140.034 74.1301 140.977 74.3645 141.613 74.8306C142.249 75.2966 142.564 75.9256 142.564 76.7176C142.564 77.2695 142.421 77.7298 142.134 78.0986C141.848 78.4646 141.475 78.6876 141.017 78.7648V78.8506C141.553 79.0021 141.997 79.2738 142.349 79.6597C142.702 80.0457 142.879 80.5632 142.879 81.2094C142.879 82.1329 142.527 82.8306 141.819 83.2966C141.111 83.7627 140.094 83.9971 138.767 83.9971H138.764ZM137.26 81.787C137.526 81.9728 138.034 82.0672 138.779 82.0672C139.524 82.0672 140.031 81.9728 140.298 81.787C140.564 81.6011 140.699 81.2895 140.699 80.852C140.699 80.4146 140.564 80.1029 140.298 79.9228C140.031 79.7427 139.524 79.6512 138.779 79.6512C138.034 79.6512 137.515 79.7427 137.251 79.9228C136.988 80.1029 136.856 80.4146 136.856 80.852C136.856 81.2895 136.991 81.6011 137.257 81.787H137.26ZM138.779 78.193C139.38 78.193 139.802 78.1101 140.045 77.9414C140.289 77.7755 140.409 77.5039 140.409 77.1322C140.409 76.7605 140.289 76.4918 140.045 76.3231C139.802 76.1572 139.378 76.0715 138.779 76.0715C138.18 76.0715 137.741 76.1544 137.495 76.3231C137.251 76.4889 137.131 76.7605 137.131 77.1322C137.131 77.5039 137.251 77.7727 137.495 77.9414C137.738 78.1072 138.165 78.193 138.779 78.193ZM121.336 12.7992C119.456 12.7992 117.928 11.2723 117.928 9.39958C117.928 7.52681 119.459 6 121.336 6C123.213 6 124.743 7.52681 124.743 9.39958C124.743 11.2723 123.213 12.7992 121.336 12.7992ZM121.336 7.32381C120.189 7.32381 119.255 8.2559 119.255 9.39958C119.255 10.5433 120.189 11.4754 121.336 11.4754C122.482 11.4754 123.416 10.5433 123.416 9.39958C123.416 8.2559 122.482 7.32381 121.336 7.32381Z" fill="white"/>
</svg>
