<svg width="160" height="90" viewBox="0 0 160 90" fill="none" xmlns="http://www.w3.org/2000/svg">
<path d="M34.6862 44.9487C32.4756 42.9778 29.1917 41.6244 25.9655 40.4531C18.9047 37.9207 15.8892 35.1611 15.8892 31.2287C15.8892 27.2589 18.8813 24.4869 23.1762 24.4869C28.1589 24.4869 33.0497 29.5564 33.0497 34.7271V34.8438H33.5192V24.1696H33.0575L33.0388 24.2738C32.9545 24.7404 32.5551 25.5213 30.8407 25.5213C29.5474 25.5213 28.3539 25.1589 27.0887 24.7778C25.8251 24.3967 24.5256 24 23.1137 24C20.3135 24 17.5288 25.3144 15.4726 27.6042C13.3369 29.9873 12.1591 33.17 12.1591 36.5736C12.1591 43.7042 17.0046 46.4124 21.7425 48.1267C30.2806 51.2331 33.7548 53.0329 33.7548 58.4244C33.7548 62.0287 30.4226 65.6764 24.0482 65.6764C19.716 65.6764 16.5413 62.5482 15.039 60.6831C12.9033 58.034 11.468 54.6833 11.468 52.3438V52.2178H11V65.9331H11.4524L11.4696 65.8273C11.6318 64.8427 12.8627 63.7896 14.4399 63.7896C15.6021 63.7896 16.8034 64.236 18.1824 64.754C19.886 65.3856 21.8142 66.1027 24.0997 66.1027C32.6394 66.1027 37.9248 59.1384 37.9248 52.686C37.9248 49.3867 36.8936 46.9289 34.6799 44.9518M74.809 30.1693C71.3082 26.1918 66.653 24.0016 61.6999 24.0016C56.6017 24.0016 51.8903 26.2431 48.4395 30.3171C45.0901 34.2744 43.2352 39.5182 43.2352 45.0793C43.2352 56.6713 51.519 66.0996 61.6999 66.0996C71.9135 66.0996 80.2114 56.662 80.2114 45.0793C80.2114 39.4389 78.2879 34.1438 74.7949 30.1662L74.809 30.1693ZM55.6017 26.6382C57.0166 25.1496 58.8996 24.4807 61.7077 24.4807C64.5501 24.4807 66.4456 25.1449 67.8621 26.6398C70.511 29.3402 71.6951 35.0258 71.6951 45.0793C71.6951 55.8111 70.692 60.6349 67.8621 63.5189C66.419 64.9936 64.4627 65.678 61.7077 65.678C58.9932 65.678 57.0556 64.9904 55.6032 63.5189C52.7733 60.6364 51.7655 55.8111 51.7655 45.0824C51.7655 35.032 52.948 29.3464 55.5986 26.6429M108.946 24.0016V24.4931H114.373C114.451 24.4931 114.464 24.504 114.464 24.5087C114.578 24.6798 114.1 26.0798 113.872 26.7533L104.153 55.5062L91.4687 24.4931H97.7042V24.0016H77.6186V24.4931H83.021L100.547 66.112L100.579 66.1898H101.026L114.369 26.8358C115.063 24.714 115.269 24.49 115.576 24.49H120.34V24.0016H108.946ZM144.779 65.6998L129.361 24.0016H128.911L115.181 63.354C114.394 65.6376 114.312 65.7029 113.918 65.7029H109.585V66.1976H120.278V65.7029H115.08C115.062 65.708 115.042 65.708 115.024 65.7029C114.919 65.5489 115.355 64.2873 115.64 63.4551L119.699 51.9393H131.676L136.337 65.7122H130.811V66.2069H149.844V65.7122L144.78 65.7013L144.779 65.6998ZM119.846 51.4322L125.796 34.4409L131.479 51.4384L119.846 51.4322Z" fill="white"/>
</svg>
