<svg width="1440" height="1024" viewBox="0 0 1440 1024" fill="none" xmlns="http://www.w3.org/2000/svg">
<rect width="1440" height="1024" fill="white"/>
<path d="M487.34 427.662V276H472.66C469.101 283.778 465.987 288.801 463.318 291.069C460.649 293.337 456.942 294.472 452.196 294.472C447.155 294.472 437.071 292.041 421.946 287.18C399.11 279.727 379.685 276 363.67 276C327.192 276 297.386 288.314 274.254 312.943C251.418 337.572 240 368.196 240 404.816C240 425.125 243.462 442.911 250.387 458.175H375.379L362.78 451.481C334.606 436.574 315.922 422.477 306.728 409.191C297.238 396.228 292.493 380.673 292.493 362.525C292.493 347.942 298.869 334.656 311.622 322.665C324.374 310.675 341.131 304.68 361.891 304.68C389.175 304.68 411.566 313.267 429.064 330.443C446.858 347.618 461.39 380.025 472.66 427.662H487.34Z" fill="#484854"/>
<path d="M516.349 636.211H450.847C451.747 641.333 452.196 646.675 452.196 652.239C452.196 670.711 445.672 686.59 432.623 699.876C419.87 712.839 403.262 719.32 382.799 719.32C353.735 719.32 327.488 707.816 304.059 684.807C291.066 672.047 280.398 655.848 272.057 636.211H241.779V741.195H256.46C260.315 732.769 265.653 728.556 272.475 728.556C278.702 728.556 286.71 730.176 296.497 733.417C328.526 743.139 356.997 748 381.909 748C416.608 748 447.896 735.686 475.774 711.057C498.32 691.088 511.845 666.14 516.349 636.211Z" fill="#484854"/>
<path d="M712.523 636.211H814.738L768.044 748H751.585L712.523 636.211Z" fill="#484854"/>
<path d="M948.646 636.211L988.693 748H1006.93L1046.61 636.211H948.646Z" fill="#484854"/>
<path d="M1109.8 458.175L1143.06 364.47C1155.22 330.443 1174.2 311.323 1200 307.11V289.125H1071.44V307.11C1088.34 307.758 1099.61 310.513 1105.25 315.374C1111.18 320.235 1114.14 325.744 1114.14 331.901C1114.14 342.271 1111.18 356.206 1105.25 373.705L1075.82 458.175H1109.8Z" fill="#484854"/>
<path d="M960.769 458.175L926.858 364.47C924.486 357.664 923.299 351.021 923.299 344.54C923.299 333.197 926.265 324.934 932.196 319.749C941.094 312.295 956.219 308.082 977.572 307.11V289.125H783.615V307.11C801.409 308.082 813.568 310.837 820.093 315.374C831.659 322.827 841.001 336.276 848.119 355.72L871.251 421.343L855.772 458.175H960.769Z" fill="#484854"/>
<path d="M725.173 458.175H650.313L620.797 373.705C612.196 350.049 603.744 334.17 595.44 326.068C587.136 317.642 574.087 311.323 556.293 307.11V289.125H727.118V307.11C711.399 308.406 701.019 311.485 695.978 316.346C691.233 321.207 688.86 328.174 688.86 337.248C688.86 347.294 691.381 359.447 696.423 373.705L725.173 458.175Z" fill="#484854"/>
<path d="M988.977 585.162V505.139H1049.11V514.582H999.982V539.091H1045.99V548.48H999.982V575.718H1051.03V585.162H988.977Z" fill="#484854"/>
<path d="M930.614 585.162V514.582H903.215V505.139H969.13V514.582H941.618V585.162H930.614Z" fill="#484854"/>
<path d="M870.718 585.162V505.139H881.723V585.162H870.718Z" fill="#484854"/>
<path d="M776.958 585.162V505.139H787.962V537.999H831.187V505.139H842.191V585.162H831.187V547.443H787.962V585.162H776.958Z" fill="#484854"/>
<path d="M673.157 585.162L651.091 505.139H662.379L675.029 557.596C676.39 563.091 677.563 568.549 678.546 573.972C680.664 565.42 681.912 560.489 682.29 559.179L698.116 505.139H711.39L723.302 545.641C726.289 555.685 728.445 565.129 729.769 573.972C730.827 568.913 732.208 563.109 733.91 556.559L746.956 505.139H758.018L735.214 585.162H724.607L707.079 524.189C705.604 519.094 704.734 515.965 704.469 514.8C703.6 518.476 702.786 521.605 702.03 524.189L684.389 585.162H673.157Z" fill="#484854"/>
<path d="M565.493 585.162V505.139H576.498V575.718H617.453V585.162H565.493Z" fill="#484854"/>
<path d="M528.288 505.139H539.292V551.373C539.292 559.415 538.347 565.802 536.456 570.533C534.565 575.263 531.143 579.121 526.189 582.105C521.273 585.052 514.806 586.526 506.789 586.526C498.999 586.526 492.627 585.234 487.673 582.651C482.719 580.067 479.183 576.337 477.065 571.461C474.947 566.548 473.889 559.852 473.889 551.373V505.139H484.893V551.318C484.893 558.269 485.555 563.4 486.879 566.712C488.24 569.987 490.547 572.516 493.799 574.299C497.089 576.082 501.098 576.974 505.825 576.974C513.917 576.974 519.685 575.209 523.126 571.679C526.567 568.149 528.288 561.362 528.288 551.318V505.139Z" fill="#484854"/>
<path d="M371.676 546.187C371.676 532.905 375.382 522.515 382.794 515.019C390.206 507.486 399.774 503.719 411.497 503.719C419.174 503.719 426.094 505.484 432.259 509.014C438.423 512.544 443.112 517.475 446.326 523.807C449.579 530.103 451.205 537.253 451.205 545.259C451.205 553.374 449.503 560.634 446.099 567.039C442.696 573.444 437.874 578.302 431.635 581.614C425.395 584.889 418.663 586.526 411.441 586.526C403.612 586.526 396.616 584.707 390.452 581.068C384.288 577.429 379.618 572.461 376.441 566.166C373.265 559.87 371.676 553.211 371.676 546.187ZM383.021 546.351C383.021 555.995 385.706 563.6 391.076 569.168C396.484 574.699 403.253 577.465 411.384 577.465C419.666 577.465 426.473 574.663 431.805 569.059C437.175 563.455 439.86 555.503 439.86 545.205C439.86 538.691 438.706 533.014 436.399 528.174C434.13 523.297 430.784 519.531 426.359 516.875C421.972 514.182 417.037 512.835 411.554 512.835C403.764 512.835 397.051 515.419 391.417 520.586C385.82 525.717 383.021 534.306 383.021 546.351Z" fill="#484854"/>
<path d="M285.517 559.452L295.898 558.578C296.39 562.581 297.524 565.875 299.301 568.458C301.117 571.006 303.915 573.08 307.697 574.681C311.478 576.246 315.733 577.028 320.46 577.028C324.657 577.028 328.363 576.428 331.578 575.227C334.792 574.026 337.175 572.389 338.725 570.314C340.313 568.204 341.108 565.911 341.108 563.436C341.108 560.925 340.351 558.742 338.839 556.886C337.326 554.994 334.83 553.411 331.351 552.137C329.12 551.3 324.185 550.008 316.546 548.261C308.907 546.478 303.556 544.804 300.493 543.24C296.522 541.238 293.553 538.764 291.587 535.816C289.658 532.832 288.694 529.502 288.694 525.827C288.694 521.787 289.885 518.021 292.268 514.527C294.65 510.997 298.129 508.323 302.705 506.503C307.281 504.684 312.367 503.774 317.964 503.774C324.128 503.774 329.555 504.738 334.244 506.667C338.971 508.559 342.601 511.361 345.135 515.073C347.669 518.785 349.03 522.988 349.219 527.683L338.668 528.447C338.101 523.388 336.173 519.567 332.883 516.984C329.63 514.4 324.809 513.108 318.418 513.108C311.762 513.108 306.903 514.291 303.839 516.656C300.814 518.985 299.301 521.805 299.301 525.117C299.301 527.992 300.379 530.357 302.535 532.213C304.652 534.069 310.174 535.98 319.098 537.945C328.061 539.873 334.206 541.566 337.534 543.021C342.374 545.168 345.948 547.898 348.255 551.209C350.562 554.484 351.715 558.269 351.715 562.563C351.715 566.821 350.448 570.842 347.915 574.627C345.381 578.375 341.732 581.304 336.967 583.415C332.24 585.489 326.907 586.526 320.97 586.526C313.445 586.526 307.129 585.471 302.024 583.36C296.957 581.25 292.967 578.084 290.055 573.862C287.181 569.605 285.669 564.801 285.517 559.452Z" fill="#484854"/>
</svg>
